<svg width="553" height="588" viewBox="0 0 553 588" fill="none" xmlns="http://www.w3.org/2000/svg">
<rect x="0.5" y="41.5" width="343.083" height="362.989" rx="8.97887" fill="white" stroke="black"/>
<rect x="18.9579" y="104.508" width="306.167" height="279.627" rx="9.47887" fill="#F5F5F5"/>
<path d="M46.9398 315.597H25.5926C21.9281 315.597 18.9574 318.567 18.9574 322.232L18.9574 356.647C18.9574 360.311 21.9281 363.282 25.5926 363.282L318.49 363.282C322.154 363.282 325.125 360.311 325.125 356.647V248.031C325.125 247.074 324.918 246.129 324.518 245.259L283.476 155.975C281.075 150.753 273.624 150.844 271.352 156.123L229.835 252.605C228.788 255.04 226.391 256.618 223.741 256.618L201.645 256.618C200.025 256.618 198.46 256.025 197.247 254.951L194.481 252.502C191.149 249.552 185.915 250.654 184.055 254.696L175.197 273.945C174.425 275.621 172.748 276.696 170.903 276.696C168.934 276.696 167.172 275.476 166.479 273.634L142.79 210.72C141.817 208.135 139.343 206.423 136.581 206.423H132.941C130.29 206.423 127.894 204.845 126.846 202.41L126.27 201.071C125.374 198.988 123.324 197.639 121.056 197.639C118.745 197.639 116.665 199.04 115.797 201.182L92.4539 258.75C91.4387 261.254 89.0067 262.892 86.305 262.892H74.1316C71.2786 262.892 68.7449 264.716 67.8394 267.421L53.2319 311.067C52.3264 313.773 49.7928 315.597 46.9398 315.597Z" fill="url(#paint0_linear_1_118)"/>
<path d="M20.853 315.888H48.4084C51.2718 315.888 53.8121 314.051 54.7094 311.332L69.1235 267.65C70.0207 264.931 72.5611 263.094 75.4245 263.094H87.2876C90.0012 263.094 92.4413 261.442 93.4487 258.922L116.511 201.237C117.357 199.12 119.407 197.731 121.687 197.731V197.731C123.925 197.731 125.946 199.069 126.82 201.129L127.395 202.487C128.436 204.938 130.841 206.53 133.504 206.53L136.94 206.53C139.714 206.53 142.195 208.256 143.16 210.856L166.562 273.894C167.237 275.714 168.974 276.921 170.915 276.921V276.921C172.737 276.921 174.391 275.856 175.144 274.196L183.855 254.997C185.708 250.913 190.994 249.805 194.331 252.801L196.903 255.111C198.121 256.205 199.7 256.81 201.336 256.81L223.022 256.81C225.685 256.81 228.09 255.217 229.13 252.766L270.036 156.349C272.294 151.028 279.802 150.937 282.188 156.201L323.229 246.754" stroke="#4F46BA" stroke-width="2.84366" stroke-linecap="round" stroke-linejoin="round"/>
<path d="M26.1929 78.6973L23.9208 74.7815H22.2289V78.6973H20.0051L20.0051 67.4174H24.5171C25.5591 67.4174 26.4454 67.7827 27.1759 68.5132C27.9064 69.2437 28.2716 70.1246 28.2716 71.1559C28.2716 71.8542 28.0729 72.5041 27.6754 73.1057C27.2779 73.6965 26.7515 74.1424 26.0962 74.4431L28.5939 78.6973H26.1929ZM22.2289 69.4961L22.2289 72.8317H24.5171C24.936 72.8317 25.2959 72.6706 25.5967 72.3483C25.8975 72.0153 26.0479 71.6178 26.0479 71.1559C26.0479 70.6939 25.8975 70.3018 25.5967 69.9796C25.2959 69.6573 24.936 69.4961 24.5171 69.4961H22.2289ZM31.1539 75.5228C31.4332 76.5326 32.1906 77.0375 33.426 77.0375C34.221 77.0375 34.8226 76.7689 35.2308 76.2318L36.9066 77.1987C36.1117 78.3481 34.9407 78.9229 33.3938 78.9229C32.0617 78.9229 30.9928 78.52 30.1871 77.7143C29.3814 76.9086 28.9785 75.8934 28.9785 74.6687C28.9785 73.4548 29.376 72.445 30.171 71.6393C30.9659 70.8229 31.9865 70.4146 33.2326 70.4146C34.4143 70.4146 35.3865 70.8229 36.1493 71.6393C36.9228 72.4557 37.3095 73.4656 37.3095 74.6687C37.3095 74.9373 37.2826 75.222 37.2289 75.5228H31.1539ZM31.1217 73.9114H35.2308C35.1126 73.3635 34.8655 72.9553 34.4895 72.6867C34.1243 72.4181 33.7053 72.2839 33.2326 72.2839C32.674 72.2839 32.2121 72.4289 31.8468 72.7189C31.4816 72.9983 31.2399 73.3957 31.1217 73.9114ZM42.5328 78.9229C41.3189 78.9229 40.3037 78.5146 39.4873 77.6982C38.6816 76.8817 38.2787 75.8719 38.2787 74.6687C38.2787 73.4656 38.6816 72.4557 39.4873 71.6393C40.3037 70.8229 41.3189 70.4146 42.5328 70.4146C43.3171 70.4146 44.0315 70.6026 44.676 70.9786C45.3206 71.3546 45.8094 71.8595 46.1424 72.4933L44.3537 73.5408C44.1926 73.2077 43.9455 72.9445 43.6125 72.7512C43.2902 72.5578 42.925 72.4611 42.5167 72.4611C41.8937 72.4611 41.378 72.6706 40.9698 73.0896C40.5616 73.4978 40.3574 74.0242 40.3574 74.6687C40.3574 75.3026 40.5616 75.829 40.9698 76.2479C41.378 76.6561 41.8937 76.8603 42.5167 76.8603C42.9357 76.8603 43.3063 76.7689 43.6286 76.5863C43.9616 76.393 44.2087 76.1298 44.3699 75.7967L46.1746 76.828C45.8201 77.4619 45.3206 77.9721 44.676 78.3589C44.0315 78.7349 43.3171 78.9229 42.5328 78.9229ZM48.9046 75.5228C49.1839 76.5326 49.9412 77.0375 51.1767 77.0375C51.9716 77.0375 52.5732 76.7689 52.9814 76.2318L54.6573 77.1987C53.8623 78.3481 52.6914 78.9229 51.1444 78.9229C49.8123 78.9229 48.7434 78.52 47.9377 77.7143C47.132 76.9086 46.7292 75.8934 46.7292 74.6687C46.7292 73.4548 47.1267 72.445 47.9216 71.6393C48.7166 70.8229 49.7371 70.4146 50.9833 70.4146C52.165 70.4146 53.1372 70.8229 53.8999 71.6393C54.6734 72.4557 55.0602 73.4656 55.0602 74.6687C55.0602 74.9373 55.0333 75.222 54.9796 75.5228H48.9046ZM48.8723 73.9114H52.9814C52.8633 73.3635 52.6162 72.9553 52.2402 72.6867C51.8749 72.4181 51.456 72.2839 50.9833 72.2839C50.4247 72.2839 49.9627 72.4289 49.5975 72.7189C49.2322 72.9983 48.9905 73.3957 48.8723 73.9114ZM60.991 70.4146C61.8719 70.4146 62.597 70.7101 63.1664 71.3009C63.7465 71.8918 64.0366 72.7082 64.0366 73.7502V78.6973H61.9579L61.9579 74.0081C61.9579 73.4709 61.8128 73.0627 61.5228 72.7834C61.2327 72.4933 60.846 72.3483 60.3626 72.3483C59.8254 72.3483 59.3957 72.5148 59.0734 72.8479C58.7512 73.1809 58.59 73.6804 58.59 74.3465L58.59 78.6973H56.5113L56.5113 70.6402H58.59V71.5426C59.0949 70.7906 59.8953 70.4146 60.991 70.4146ZM70.4201 72.6384H68.5992V75.9901C68.5992 76.2694 68.6691 76.4735 68.8087 76.6024C68.9484 76.7313 69.1525 76.8065 69.4211 76.828C69.6896 76.8388 70.0227 76.8334 70.4201 76.8119V78.6973C68.9914 78.8584 67.9815 78.7241 67.3907 78.2944C66.8106 77.8647 66.5205 77.0966 66.5205 75.9901V72.6384H65.1186V70.6402H66.5205V69.0127L68.5992 68.3843V70.6402H70.4201V72.6384ZM83.3882 78.6973L82.7114 76.6669H78.2156L77.5388 78.6973H75.1378L79.0857 67.4174H81.8412L85.8053 78.6973H83.3882ZM78.9246 74.5882H82.0185L80.4715 69.9796L78.9246 74.5882ZM92.6908 67.4174H94.7695V78.6973H92.6908V77.7465C92.0785 78.5308 91.2083 78.9229 90.0803 78.9229C88.9953 78.9229 88.0661 78.5146 87.2926 77.6982C86.5299 76.871 86.1485 75.8612 86.1485 74.6687C86.1485 73.4763 86.5299 72.4719 87.2926 71.6554C88.0661 70.8282 88.9953 70.4146 90.0803 70.4146C91.2083 70.4146 92.0785 70.8067 92.6908 71.591V67.4174ZM88.8557 76.3124C89.2854 76.7313 89.8225 76.9408 90.4671 76.9408C91.1116 76.9408 91.6434 76.7313 92.0624 76.3124C92.4813 75.8827 92.6908 75.3348 92.6908 74.6687C92.6908 74.0027 92.4813 73.4602 92.0624 73.0412C91.6434 72.6115 91.1116 72.3967 90.4671 72.3967C89.8225 72.3967 89.2854 72.6115 88.8557 73.0412C88.4367 73.4602 88.2272 74.0027 88.2272 74.6687C88.2272 75.3348 88.4367 75.8827 88.8557 76.3124ZM104.534 78.9229C103.32 78.9229 102.305 78.5146 101.489 77.6982C100.683 76.8817 100.28 75.8719 100.28 74.6687C100.28 73.4656 100.683 72.4557 101.489 71.6393C102.305 70.8229 103.32 70.4146 104.534 70.4146C105.318 70.4146 106.033 70.6026 106.677 70.9786C107.322 71.3546 107.811 71.8595 108.144 72.4933L106.355 73.5408C106.194 73.2077 105.947 72.9445 105.614 72.7512C105.292 72.5578 104.926 72.4611 104.518 72.4611C103.895 72.4611 103.379 72.6706 102.971 73.0896C102.563 73.4978 102.359 74.0242 102.359 74.6687C102.359 75.3026 102.563 75.829 102.971 76.2479C103.379 76.6561 103.895 76.8603 104.518 76.8603C104.937 76.8603 105.308 76.7689 105.63 76.5863C105.963 76.393 106.21 76.1298 106.371 75.7967L108.176 76.828C107.822 77.4619 107.322 77.9721 106.677 78.3589C106.033 78.7349 105.318 78.9229 104.534 78.9229ZM115.273 70.6402H117.352V78.6973H115.273V77.7465C114.65 78.5308 113.774 78.9229 112.646 78.9229C111.572 78.9229 110.648 78.5146 109.875 77.6982C109.112 76.871 108.731 75.8612 108.731 74.6687C108.731 73.4763 109.112 72.4719 109.875 71.6554C110.648 70.8282 111.572 70.4146 112.646 70.4146C113.774 70.4146 114.65 70.8067 115.273 71.591V70.6402ZM111.438 76.3124C111.857 76.7313 112.388 76.9408 113.033 76.9408C113.678 76.9408 114.209 76.7313 114.628 76.3124C115.058 75.8827 115.273 75.3348 115.273 74.6687C115.273 74.0027 115.058 73.4602 114.628 73.0412C114.209 72.6115 113.678 72.3967 113.033 72.3967C112.388 72.3967 111.857 72.6115 111.438 73.0412C111.019 73.4602 110.809 74.0027 110.809 74.6687C110.809 75.3348 111.019 75.8827 111.438 76.3124ZM128.148 70.4146C129.072 70.4146 129.807 70.7154 130.355 71.317C130.914 71.9186 131.193 72.7243 131.193 73.7341V78.6973H129.115V73.8792C129.115 73.3957 128.996 73.0197 128.76 72.7512C128.524 72.4826 128.191 72.3483 127.761 72.3483C127.288 72.3483 126.918 72.5041 126.649 72.8156C126.391 73.1272 126.262 73.5784 126.262 74.1692V78.6973H124.184V73.8792C124.184 73.3957 124.065 73.0197 123.829 72.7512C123.593 72.4826 123.26 72.3483 122.83 72.3483C122.368 72.3483 121.997 72.5041 121.718 72.8156C121.45 73.1272 121.315 73.5784 121.315 74.1692V78.6973H119.237V70.6402H121.315V71.4943C121.799 70.7745 122.545 70.4146 123.555 70.4146C124.543 70.4146 125.274 70.8014 125.747 71.5748C126.284 70.8014 127.084 70.4146 128.148 70.4146ZM137.648 70.4146C138.733 70.4146 139.657 70.8282 140.42 71.6554C141.193 72.4719 141.58 73.4763 141.58 74.6687C141.58 75.8612 141.193 76.871 140.42 77.6982C139.657 78.5146 138.733 78.9229 137.648 78.9229C136.52 78.9229 135.65 78.5308 135.037 77.7465V81.9201H132.959V70.6402H135.037V71.591C135.65 70.8067 136.52 70.4146 137.648 70.4146ZM135.666 76.3124C136.085 76.7313 136.617 76.9408 137.261 76.9408C137.906 76.9408 138.438 76.7313 138.856 76.3124C139.286 75.8827 139.501 75.3348 139.501 74.6687C139.501 74.0027 139.286 73.4602 138.856 73.0412C138.438 72.6115 137.906 72.3967 137.261 72.3967C136.617 72.3967 136.085 72.6115 135.666 73.0412C135.247 73.4602 135.037 74.0027 135.037 74.6687C135.037 75.3348 135.247 75.8827 135.666 76.3124ZM149.169 70.6402H151.248V78.6973H149.169V77.7465C148.546 78.5308 147.671 78.9229 146.543 78.9229C145.468 78.9229 144.544 78.5146 143.771 77.6982C143.008 76.871 142.627 75.8612 142.627 74.6687C142.627 73.4763 143.008 72.4719 143.771 71.6554C144.544 70.8282 145.468 70.4146 146.543 70.4146C147.671 70.4146 148.546 70.8067 149.169 71.591V70.6402ZM145.334 76.3124C145.753 76.7313 146.285 76.9408 146.929 76.9408C147.574 76.9408 148.106 76.7313 148.525 76.3124C148.954 75.8827 149.169 75.3348 149.169 74.6687C149.169 74.0027 148.954 73.4602 148.525 73.0412C148.106 72.6115 147.574 72.3967 146.929 72.3967C146.285 72.3967 145.753 72.6115 145.334 73.0412C144.915 73.4602 144.706 74.0027 144.706 74.6687C144.706 75.3348 144.915 75.8827 145.334 76.3124ZM154.164 69.6734C153.82 69.6734 153.52 69.5498 153.262 69.3028C153.015 69.0449 152.891 68.7441 152.891 68.4004C152.891 68.0566 153.015 67.7558 153.262 67.498C153.52 67.2402 153.82 67.1112 154.164 67.1112C154.519 67.1112 154.819 67.2402 155.066 67.498C155.324 67.7558 155.453 68.0566 155.453 68.4004C155.453 68.7441 155.324 69.0449 155.066 69.3028C154.819 69.5498 154.519 69.6734 154.164 69.6734ZM153.133 78.6973V70.6402H155.212V78.6973H153.133ZM163.286 70.6402H165.316V78.3105C165.316 79.5567 164.903 80.5074 164.075 81.1627C163.259 81.818 162.271 82.1457 161.11 82.1457C160.24 82.1457 159.472 81.9792 158.806 81.6461C158.151 81.3131 157.646 80.8243 157.291 80.1798L159.064 79.1646C159.472 79.9166 160.176 80.2926 161.175 80.2926C161.83 80.2926 162.346 80.1207 162.722 79.7769C163.098 79.4331 163.286 78.9443 163.286 78.3105V77.4404C162.673 78.2568 161.814 78.665 160.708 78.665C159.569 78.665 158.613 78.2676 157.839 77.4726C157.077 76.6669 156.695 75.6893 156.695 74.5398C156.695 73.4011 157.082 72.4289 157.855 71.6232C158.629 70.8175 159.58 70.4146 160.708 70.4146C161.814 70.4146 162.673 70.8229 163.286 71.6393V70.6402ZM159.402 76.1351C159.832 76.5434 160.375 76.7475 161.03 76.7475C161.685 76.7475 162.222 76.5434 162.641 76.1351C163.071 75.7162 163.286 75.1844 163.286 74.5398C163.286 73.906 163.071 73.385 162.641 72.9768C162.222 72.5578 161.685 72.3483 161.03 72.3483C160.375 72.3483 159.832 72.5578 159.402 72.9768C158.983 73.385 158.774 73.906 158.774 74.5398C158.774 75.1844 158.983 75.7162 159.402 76.1351ZM171.681 70.4146C172.562 70.4146 173.287 70.7101 173.856 71.3009C174.436 71.8918 174.726 72.7082 174.726 73.7502V78.6973H172.648V74.0081C172.648 73.4709 172.503 73.0627 172.213 72.7834C171.923 72.4933 171.536 72.3483 171.052 72.3483C170.515 72.3483 170.086 72.5148 169.763 72.8479C169.441 73.1809 169.28 73.6804 169.28 74.3465V78.6973H167.201V70.6402H169.28V71.5426C169.785 70.7906 170.585 70.4146 171.681 70.4146Z" fill="black"/>
<rect x="227.019" y="60.4317" width="97.6323" height="27.4887" rx="4.26549" fill="white" stroke="#8896A6" stroke-width="0.947887"/>
<path d="M302.376 76.0716L307.116 71.3322M307.116 71.3322H303.324M307.116 71.3322V75.1237" stroke="#8896A6" stroke-width="0.947887"/>
<path d="M243.465 76.446H246.166V77.4886H242.374V70.8534H243.465V76.446ZM247.876 71.8487C247.749 71.9751 247.597 72.0383 247.421 72.0383C247.244 72.0383 247.089 71.9751 246.956 71.8487C246.83 71.716 246.767 71.5612 246.767 71.3843C246.767 71.2073 246.83 71.0557 246.956 70.9293C247.082 70.7966 247.237 70.7302 247.421 70.7302C247.604 70.7302 247.759 70.7966 247.885 70.9293C248.011 71.0557 248.075 71.2073 248.075 71.3843C248.075 71.5612 248.008 71.716 247.876 71.8487ZM246.909 77.4886V72.7492H247.932V77.4886H246.909ZM252.334 72.7492H253.453L251.605 77.4886H250.42L248.571 72.7492H249.69L251.017 76.3512L252.334 72.7492ZM254.722 75.555C254.798 75.9152 254.971 76.1932 255.243 76.3891C255.515 76.5787 255.847 76.6735 256.238 76.6735C256.782 76.6735 257.189 76.4776 257.461 76.0858L258.305 76.5787C257.837 77.2675 257.145 77.6119 256.229 77.6119C255.458 77.6119 254.835 77.3781 254.362 76.9104C253.888 76.4365 253.651 75.8393 253.651 75.1189C253.651 74.4112 253.884 73.8203 254.352 73.3464C254.82 72.8661 255.42 72.626 256.153 72.626C256.848 72.626 257.417 72.8693 257.859 73.3559C258.308 73.8424 258.532 74.4333 258.532 75.1284C258.532 75.2358 258.52 75.378 258.494 75.555H254.722ZM254.712 74.7208H257.499C257.43 74.3353 257.268 74.0447 257.016 73.8488C256.769 73.6529 256.478 73.5549 256.144 73.5549C255.764 73.5549 255.448 73.6592 255.196 73.8677C254.943 74.0763 254.782 74.3606 254.712 74.7208ZM264.315 70.8534C264.94 70.8534 265.462 71.062 265.879 71.479C266.302 71.8961 266.514 72.4143 266.514 73.0336C266.514 73.6465 266.302 74.1647 265.879 74.5881C265.462 75.0052 264.94 75.2137 264.315 75.2137H262.959V77.4886H261.869V70.8534H264.315ZM264.315 74.19C264.637 74.19 264.902 74.0826 265.111 73.8677C265.319 73.6465 265.424 73.3685 265.424 73.0336C265.424 72.6987 265.319 72.4238 265.111 72.2089C264.902 71.9877 264.637 71.8772 264.315 71.8772H262.959V74.19H264.315ZM268.325 73.5454C268.584 72.9577 269.071 72.6639 269.785 72.6639V73.7729C269.393 73.7477 269.052 73.8424 268.761 74.0573C268.47 74.2658 268.325 74.6134 268.325 75.1V77.4886H267.301V72.7492H268.325V73.5454ZM271.125 75.555C271.2 75.9152 271.374 76.1932 271.646 76.3891C271.918 76.5787 272.249 76.6735 272.641 76.6735C273.185 76.6735 273.592 76.4776 273.864 76.0858L274.708 76.5787C274.24 77.2675 273.548 77.6119 272.632 77.6119C271.861 77.6119 271.238 77.3781 270.764 76.9104C270.29 76.4365 270.053 75.8393 270.053 75.1189C270.053 74.4112 270.287 73.8203 270.755 73.3464C271.223 72.8661 271.823 72.626 272.556 72.626C273.251 72.626 273.82 72.8693 274.262 73.3559C274.711 73.8424 274.935 74.4333 274.935 75.1284C274.935 75.2358 274.922 75.378 274.897 75.555L271.125 75.555ZM271.115 74.7208L273.902 74.7208C273.832 74.3353 273.671 74.0447 273.418 73.8488C273.172 73.6529 272.881 73.5549 272.546 73.5549C272.167 73.5549 271.851 73.6592 271.599 73.8677C271.346 74.0763 271.185 74.3606 271.115 74.7208ZM278.864 72.7492H279.983L278.134 77.4886H276.949L275.101 72.7492H276.219L277.547 76.3512L278.864 72.7492ZM281.598 71.8487C281.471 71.9751 281.32 72.0383 281.143 72.0383C280.966 72.0383 280.811 71.9751 280.678 71.8487C280.552 71.716 280.489 71.5612 280.489 71.3843C280.489 71.2073 280.552 71.0557 280.678 70.9293C280.805 70.7966 280.959 70.7302 281.143 70.7302C281.326 70.7302 281.481 70.7966 281.607 70.9293C281.734 71.0557 281.797 71.2073 281.797 71.3843C281.797 71.5612 281.73 71.716 281.598 71.8487ZM280.631 77.4886V72.7492H281.655V77.4886H280.631ZM283.649 75.555C283.725 75.9152 283.899 76.1932 284.17 76.3891C284.442 76.5787 284.774 76.6735 285.166 76.6735C285.709 76.6735 286.117 76.4776 286.388 76.0858L287.232 76.5787C286.764 77.2675 286.072 77.6119 285.156 77.6119C284.385 77.6119 283.763 77.3781 283.289 76.9104C282.815 76.4365 282.578 75.8393 282.578 75.1189C282.578 74.4112 282.812 73.8203 283.279 73.3464C283.747 72.8661 284.347 72.626 285.08 72.626C285.775 72.626 286.344 72.8693 286.786 73.3559C287.235 73.8424 287.459 74.4333 287.459 75.1284C287.459 75.2358 287.447 75.378 287.422 75.555H283.649ZM283.639 74.7208H286.426C286.357 74.3353 286.196 74.0447 285.943 73.8488C285.696 73.6529 285.406 73.5549 285.071 73.5549C284.692 73.5549 284.376 73.6592 284.123 73.8677C283.87 74.0763 283.709 74.3606 283.639 74.7208ZM293.635 72.7492H294.716L293.227 77.4886H292.223L291.237 74.2943L290.241 77.4886H289.237L287.749 72.7492H288.829L289.749 76.0194L290.744 72.7492H291.72L292.706 76.0194L293.635 72.7492Z" fill="#8896A6"/>
<g filter="url(#filter0_d_1_118)">
<rect x="302" y="114.286" width="132.704" height="104.268" rx="7" fill="white"/>
<rect x="302.5" y="114.786" width="131.704" height="103.268" rx="6.5" stroke="black"/>
</g>
<path d="M317.397 150.29H320.127V166.214H316.987V153.611L313.985 154.453L313.211 151.768L317.397 150.29ZM322.145 166.214V163.871L327.582 158.275C328.796 157.001 329.402 155.939 329.402 155.09C329.402 154.468 329.205 153.967 328.811 153.588C328.432 153.209 327.939 153.02 327.332 153.02C326.134 153.02 325.247 153.641 324.67 154.885L322.031 153.338C322.532 152.246 323.252 151.412 324.193 150.836C325.133 150.259 326.164 149.971 327.287 149.971C328.727 149.971 329.963 150.426 330.995 151.336C332.026 152.231 332.542 153.444 332.542 154.976C332.542 156.629 331.67 158.328 329.925 160.072L326.809 163.188H332.792V166.214H322.145ZM334.003 166.214V163.871L339.44 158.275C340.654 157.001 341.26 155.939 341.26 155.09C341.26 154.468 341.063 153.967 340.669 153.588C340.29 153.209 339.797 153.02 339.19 153.02C337.992 153.02 337.105 153.641 336.528 154.885L333.89 153.338C334.39 152.246 335.11 151.412 336.051 150.836C336.991 150.259 338.022 149.971 339.145 149.971C340.585 149.971 341.821 150.426 342.853 151.336C343.884 152.231 344.4 153.444 344.4 154.976C344.4 156.629 343.528 158.328 341.784 160.072L338.667 163.188H344.65V166.214H334.003ZM350.457 163.075L348.75 169.399H346.362L347.272 163.075H350.457ZM357.835 155.454C359.488 155.499 360.83 156.038 361.861 157.069C362.893 158.085 363.408 159.389 363.408 160.982C363.408 162.605 362.87 163.939 361.793 164.986C360.716 166.017 359.329 166.533 357.63 166.533C355.931 166.533 354.544 166.017 353.467 164.986C352.405 163.954 351.874 162.62 351.874 160.982C351.874 159.768 352.185 158.699 352.807 157.774L357.766 150.29H361.361L357.835 155.454ZM355.742 162.87C356.242 163.34 356.872 163.575 357.63 163.575C358.388 163.575 359.018 163.34 359.518 162.87C360.034 162.4 360.292 161.77 360.292 160.982C360.292 160.208 360.034 159.586 359.518 159.116C359.018 158.646 358.388 158.411 357.63 158.411C356.872 158.411 356.242 158.646 355.742 159.116C355.241 159.571 354.991 160.193 354.991 160.982C354.991 161.77 355.241 162.4 355.742 162.87ZM371.506 156.75C372.583 157.069 373.455 157.63 374.122 158.434C374.805 159.222 375.146 160.178 375.146 161.3C375.146 162.938 374.593 164.22 373.486 165.145C372.394 166.07 371.051 166.533 369.459 166.533C368.215 166.533 367.101 166.252 366.115 165.691C365.144 165.115 364.439 164.273 363.999 163.166L366.683 161.619C367.078 162.847 368.003 163.461 369.459 163.461C370.263 163.461 370.885 163.272 371.324 162.893C371.779 162.498 372.007 161.968 372.007 161.3C372.007 160.648 371.779 160.125 371.324 159.731C370.885 159.336 370.263 159.139 369.459 159.139H368.776L367.571 157.319L370.71 153.224H364.477V150.29L374.486 150.29V152.883L371.506 156.75ZM375.941 150.29H386.223V152.951L380.832 166.214H377.51L382.743 153.293H375.941V150.29Z" fill="black"/>
<path d="M317.704 131.07V135.557H316.967V132.358L315.602 134.615H315.512L314.147 132.352V135.557H313.41V131.07H314.204L315.557 133.313L316.916 131.07H317.704ZM321.156 132.352H321.849V135.557H321.156V135.095C320.896 135.458 320.522 135.64 320.035 135.64C319.594 135.64 319.218 135.478 318.906 135.153C318.594 134.824 318.439 134.424 318.439 133.954C318.439 133.48 318.594 133.08 318.906 132.756C319.218 132.431 319.594 132.269 320.035 132.269C320.522 132.269 320.896 132.448 321.156 132.807V132.352ZM319.419 134.691C319.612 134.884 319.853 134.98 320.144 134.98C320.434 134.98 320.676 134.884 320.868 134.691C321.06 134.495 321.156 134.249 321.156 133.954C321.156 133.659 321.06 133.416 320.868 133.224C320.676 133.027 320.434 132.929 320.144 132.929C319.853 132.929 319.612 133.027 319.419 133.224C319.227 133.416 319.131 133.659 319.131 133.954C319.131 134.249 319.227 134.495 319.419 134.691ZM323.412 132.89C323.587 132.493 323.916 132.294 324.399 132.294V133.044C324.134 133.027 323.903 133.091 323.707 133.236C323.51 133.377 323.412 133.612 323.412 133.941V135.557H322.72V132.352H323.412V132.89ZM326.337 135.64C325.854 135.64 325.45 135.478 325.126 135.153C324.805 134.828 324.645 134.429 324.645 133.954C324.645 133.476 324.805 133.076 325.126 132.756C325.45 132.431 325.854 132.269 326.337 132.269C326.649 132.269 326.933 132.343 327.189 132.493C327.446 132.642 327.638 132.843 327.766 133.095L327.17 133.442C327.098 133.288 326.986 133.168 326.837 133.083C326.692 132.993 326.523 132.948 326.331 132.948C326.049 132.948 325.811 133.044 325.619 133.236C325.431 133.429 325.337 133.668 325.337 133.954C325.337 134.241 325.431 134.48 325.619 134.672C325.811 134.865 326.049 134.961 326.331 134.961C326.519 134.961 326.687 134.916 326.837 134.826C326.991 134.736 327.106 134.617 327.183 134.467L327.779 134.807C327.642 135.063 327.446 135.266 327.189 135.416C326.933 135.565 326.649 135.64 326.337 135.64ZM330.029 132.269C330.397 132.269 330.694 132.386 330.92 132.621C331.147 132.856 331.26 133.179 331.26 133.589V135.557H330.568V133.659C330.568 133.42 330.504 133.236 330.376 133.108C330.247 132.98 330.072 132.916 329.85 132.916C329.606 132.916 329.41 132.993 329.26 133.147C329.111 133.296 329.036 133.527 329.036 133.839V135.557H328.344V131.07H329.036V132.762C329.245 132.433 329.576 132.269 330.029 132.269ZM333.531 135.557V134.98L335.095 133.384C335.475 133.004 335.665 132.674 335.665 132.397C335.665 132.179 335.599 132.01 335.467 131.89C335.339 131.766 335.174 131.704 334.973 131.704C334.597 131.704 334.319 131.89 334.14 132.262L333.518 131.897C333.659 131.598 333.858 131.371 334.114 131.217C334.371 131.063 334.655 130.987 334.967 130.987C335.36 130.987 335.698 131.11 335.98 131.358C336.262 131.606 336.403 131.944 336.403 132.371C336.403 132.828 336.148 133.315 335.64 133.833L334.627 134.845H336.486V135.557H333.531ZM340.304 134.063V134.749H339.791V135.557H339.048V134.749H336.843V134.063L338.387 131.07H339.189L337.644 134.063H339.048V132.897H339.791V134.063H340.304ZM341.843 134.788L341.394 136.454H340.817L341.074 134.788H341.843ZM347.218 135.006C346.911 135.429 346.479 135.64 345.924 135.64C345.368 135.64 344.934 135.429 344.622 135.006C344.315 134.582 344.161 134.018 344.161 133.313C344.161 132.608 344.315 132.044 344.622 131.621C344.934 131.198 345.368 130.987 345.924 130.987C346.479 130.987 346.911 131.198 347.218 131.621C347.53 132.044 347.686 132.608 347.686 133.313C347.686 134.018 347.53 134.582 347.218 135.006ZM345.924 134.922C346.257 134.922 346.511 134.783 346.686 134.506C346.862 134.228 346.949 133.83 346.949 133.313C346.949 132.796 346.862 132.399 346.686 132.121C346.511 131.843 346.257 131.704 345.924 131.704C345.595 131.704 345.34 131.843 345.161 132.121C344.986 132.399 344.898 132.796 344.898 133.313C344.898 133.83 344.986 134.228 345.161 134.506C345.34 134.783 345.595 134.922 345.924 134.922ZM348.111 135.557V134.98L349.675 133.384C350.055 133.004 350.245 132.674 350.245 132.397C350.245 132.179 350.179 132.01 350.047 131.89C349.918 131.766 349.754 131.704 349.553 131.704C349.177 131.704 348.899 131.89 348.72 132.262L348.098 131.897C348.239 131.598 348.438 131.371 348.694 131.217C348.951 131.063 349.235 130.987 349.547 130.987C349.94 130.987 350.277 131.11 350.559 131.358C350.841 131.606 350.982 131.944 350.982 132.371C350.982 132.828 350.728 133.315 350.22 133.833L349.207 134.845H351.066V135.557H348.111ZM352.529 133.089C352.435 133.183 352.322 133.23 352.189 133.23C352.057 133.23 351.944 133.183 351.85 133.089C351.756 132.995 351.709 132.882 351.709 132.749C351.709 132.613 351.754 132.499 351.843 132.41C351.937 132.316 352.053 132.269 352.189 132.269C352.322 132.269 352.435 132.316 352.529 132.41C352.623 132.504 352.67 132.617 352.67 132.749C352.67 132.882 352.623 132.995 352.529 133.089ZM352.529 135.493C352.435 135.587 352.322 135.634 352.189 135.634C352.057 135.634 351.944 135.587 351.85 135.493C351.756 135.399 351.709 135.285 351.709 135.153C351.709 135.02 351.754 134.907 351.843 134.813C351.937 134.719 352.053 134.672 352.189 134.672C352.322 134.672 352.435 134.719 352.529 134.813C352.623 134.907 352.67 135.02 352.67 135.153C352.67 135.285 352.623 135.399 352.529 135.493ZM356.381 135.006C356.073 135.429 355.641 135.64 355.086 135.64C354.53 135.64 354.097 135.429 353.785 135.006C353.477 134.582 353.323 134.018 353.323 133.313C353.323 132.608 353.477 132.044 353.785 131.621C354.097 131.198 354.53 130.987 355.086 130.987C355.641 130.987 356.073 131.198 356.381 131.621C356.693 132.044 356.849 132.608 356.849 133.313C356.849 134.018 356.693 134.582 356.381 135.006ZM355.086 134.922C355.419 134.922 355.673 134.783 355.849 134.506C356.024 134.228 356.111 133.83 356.111 133.313C356.111 132.796 356.024 132.399 355.849 132.121C355.673 131.843 355.419 131.704 355.086 131.704C354.757 131.704 354.503 131.843 354.323 132.121C354.148 132.399 354.06 132.796 354.06 133.313C354.06 133.83 354.148 134.228 354.323 134.506C354.503 134.783 354.757 134.922 355.086 134.922ZM360.482 135.006C360.175 135.429 359.743 135.64 359.187 135.64C358.632 135.64 358.198 135.429 357.886 135.006C357.579 134.582 357.425 134.018 357.425 133.313C357.425 132.608 357.579 132.044 357.886 131.621C358.198 131.198 358.632 130.987 359.187 130.987C359.743 130.987 360.175 131.198 360.482 131.621C360.794 132.044 360.95 132.608 360.95 133.313C360.95 134.018 360.794 134.582 360.482 135.006ZM359.187 134.922C359.521 134.922 359.775 134.783 359.95 134.506C360.125 134.228 360.213 133.83 360.213 133.313C360.213 132.796 360.125 132.399 359.95 132.121C359.775 131.843 359.521 131.704 359.187 131.704C358.858 131.704 358.604 131.843 358.425 132.121C358.249 132.399 358.162 132.796 358.162 133.313C358.162 133.83 358.249 134.228 358.425 134.506C358.604 134.783 358.858 134.922 359.187 134.922ZM363.372 131.07C363.795 131.07 364.148 131.211 364.43 131.493C364.716 131.775 364.859 132.125 364.859 132.544C364.859 132.959 364.716 133.309 364.43 133.595C364.148 133.877 363.795 134.018 363.372 134.018H362.456V135.557H361.719V131.07H363.372ZM363.372 133.326C363.59 133.326 363.77 133.254 363.911 133.108C364.052 132.959 364.122 132.771 364.122 132.544C364.122 132.318 364.052 132.132 363.911 131.986C363.77 131.837 363.59 131.762 363.372 131.762H362.456V133.326H363.372ZM369.858 131.07V135.557H369.121V132.358L367.756 134.615H367.666L366.301 132.352V135.557H365.563V131.07H366.358L367.711 133.313L369.07 131.07H369.858Z" fill="#8896A6"/>
<rect opacity="0.2" x="313.375" y="183.482" width="49.2901" height="20.8535" rx="1.60245" fill="#2FE6C8"/>
<path d="M330.227 196.237V195.383L332.54 193.023C333.103 192.461 333.384 191.974 333.384 191.563C333.384 191.241 333.286 190.992 333.09 190.815C332.9 190.631 332.657 190.54 332.36 190.54C331.804 190.54 331.393 190.815 331.128 191.364L330.208 190.824C330.417 190.382 330.711 190.047 331.09 189.819C331.469 189.592 331.889 189.478 332.351 189.478C332.932 189.478 333.431 189.661 333.848 190.028C334.265 190.394 334.474 190.894 334.474 191.526C334.474 192.202 334.098 192.922 333.346 193.687L331.848 195.184H334.597V196.237H330.227ZM336.536 189.601H337.484V196.237H336.394V190.767L335.057 191.146L334.792 190.217L336.536 189.601ZM339.721 196.142C339.582 196.281 339.415 196.35 339.219 196.35C339.023 196.35 338.856 196.281 338.717 196.142C338.578 196.003 338.508 195.835 338.508 195.639C338.508 195.444 338.574 195.276 338.707 195.137C338.846 194.998 339.017 194.928 339.219 194.928C339.415 194.928 339.582 194.998 339.721 195.137C339.86 195.276 339.93 195.444 339.93 195.639C339.93 195.835 339.86 196.003 339.721 196.142ZM345.569 194.028V195.042H344.81V196.237H343.711V195.042H340.45V194.028L342.734 189.601H343.919L341.635 194.028H343.711V192.303H344.81V194.028H345.569ZM348.197 192.075C347.906 192.366 347.54 192.511 347.097 192.511C346.655 192.511 346.285 192.366 345.988 192.075C345.691 191.778 345.543 191.418 345.543 190.995C345.543 190.571 345.691 190.214 345.988 189.924C346.285 189.627 346.655 189.478 347.097 189.478C347.54 189.478 347.906 189.623 348.197 189.914C348.494 190.205 348.642 190.565 348.642 190.995C348.642 191.418 348.494 191.778 348.197 192.075ZM347.088 191.677C347.29 191.677 347.454 191.611 347.581 191.478C347.707 191.345 347.77 191.184 347.77 190.995C347.77 190.799 347.707 190.635 347.581 190.502C347.454 190.369 347.29 190.303 347.088 190.303C346.892 190.303 346.731 190.369 346.604 190.502C346.478 190.635 346.415 190.799 346.415 190.995C346.415 191.184 346.478 191.345 346.604 191.478C346.731 191.611 346.892 191.677 347.088 191.677ZM346.102 195.26L350.472 190.398L350.984 190.691L346.614 195.564L346.102 195.26ZM350.131 196.35C349.688 196.35 349.319 196.205 349.022 195.914C348.725 195.617 348.576 195.257 348.576 194.834C348.576 194.41 348.725 194.053 349.022 193.763C349.319 193.466 349.688 193.317 350.131 193.317C350.567 193.317 350.933 193.466 351.23 193.763C351.527 194.053 351.676 194.41 351.676 194.834C351.676 195.257 351.527 195.617 351.23 195.914C350.933 196.205 350.567 196.35 350.131 196.35ZM350.121 195.516C350.323 195.516 350.488 195.45 350.614 195.317C350.74 195.184 350.804 195.023 350.804 194.834C350.804 194.638 350.74 194.474 350.614 194.341C350.488 194.208 350.323 194.142 350.121 194.142C349.925 194.142 349.764 194.208 349.638 194.341C349.511 194.474 349.448 194.638 349.448 194.834C349.448 195.023 349.511 195.184 349.638 195.317C349.764 195.45 349.925 195.516 350.121 195.516Z" fill="#2FE6C8"/>
<path d="M321.458 191.934C321.664 191.578 322.178 191.578 322.384 191.934L324.234 195.139C324.44 195.495 324.183 195.94 323.771 195.94H320.071C319.659 195.94 319.402 195.495 319.608 195.139L321.458 191.934Z" fill="#2FE6C8"/>
<g filter="url(#filter1_dddddd_1_118)">
<rect x="239" y="347.286" width="167.776" height="115.993" rx="6.90436" fill="white"/>
<rect x="239.5" y="347.786" width="166.776" height="114.993" rx="6.40436" stroke="black"/>
</g>
<path d="M253.789 361.258V362.321H251.884V368.024H250.773V362.321H248.859V361.258H253.789ZM255.956 368.15C255.247 368.15 254.644 367.905 254.148 367.415C253.652 366.925 253.404 366.323 253.404 365.608C253.404 364.892 253.652 364.29 254.148 363.8C254.644 363.31 255.247 363.065 255.956 363.065C256.671 363.065 257.274 363.31 257.763 363.8C258.26 364.29 258.508 364.892 258.508 365.608C258.508 366.323 258.26 366.925 257.763 367.415C257.274 367.905 256.671 368.15 255.956 368.15ZM254.883 366.7C255.173 366.99 255.53 367.135 255.956 367.135C256.381 367.135 256.739 366.99 257.029 366.7C257.319 366.41 257.464 366.046 257.464 365.608C257.464 365.169 257.319 364.805 257.029 364.515C256.739 364.225 256.381 364.08 255.956 364.08C255.53 364.08 255.173 364.225 254.883 364.515C254.593 364.805 254.448 365.169 254.448 365.608C254.448 366.046 254.593 366.41 254.883 366.7ZM262.054 364.196H260.855V366.516C260.855 366.716 260.901 366.861 260.991 366.951C261.081 367.035 261.213 367.083 261.387 367.096C261.568 367.103 261.79 367.099 262.054 367.086V368.024C261.255 368.121 260.681 368.053 260.333 367.821C259.985 367.583 259.811 367.148 259.811 366.516V364.196H258.922V363.191H259.811V362.147L260.855 361.838V363.191H262.054V364.196ZM266.63 363.191H267.674V368.024H266.63V367.328C266.237 367.876 265.673 368.15 264.939 368.15C264.275 368.15 263.708 367.905 263.238 367.415C262.767 366.919 262.532 366.316 262.532 365.608C262.532 364.892 262.767 364.29 263.238 363.8C263.708 363.31 264.275 363.065 264.939 363.065C265.673 363.065 266.237 363.336 266.63 363.877V363.191ZM264.011 366.719C264.301 367.009 264.665 367.154 265.103 367.154C265.541 367.154 265.905 367.009 266.195 366.719C266.485 366.423 266.63 366.052 266.63 365.608C266.63 365.163 266.485 364.796 266.195 364.506C265.905 364.209 265.541 364.061 265.103 364.061C264.665 364.061 264.301 364.209 264.011 364.506C263.721 364.796 263.576 365.163 263.576 365.608C263.576 366.052 263.721 366.423 264.011 366.719ZM268.891 368.024V360.968H269.935V368.024H268.891ZM277.614 364.515C277.91 364.67 278.142 364.883 278.31 365.153C278.477 365.424 278.561 365.736 278.561 366.091C278.561 366.645 278.365 367.106 277.971 367.473C277.578 367.84 277.098 368.024 276.531 368.024H273.631V361.258H276.319C276.873 361.258 277.34 361.438 277.72 361.799C278.107 362.153 278.3 362.598 278.3 363.133C278.3 363.719 278.071 364.18 277.614 364.515ZM276.319 362.302H274.743V364.08H276.319C276.563 364.08 276.77 363.997 276.937 363.829C277.105 363.655 277.189 363.442 277.189 363.191C277.189 362.94 277.105 362.73 276.937 362.563C276.77 362.389 276.563 362.302 276.319 362.302ZM276.531 366.98C276.789 366.98 277.005 366.89 277.179 366.709C277.359 366.523 277.449 366.297 277.449 366.033C277.449 365.769 277.359 365.546 277.179 365.366C277.005 365.179 276.789 365.086 276.531 365.086H274.743V366.98H276.531ZM283.338 363.191H284.382V368.024H283.338V367.328C282.945 367.876 282.381 368.15 281.647 368.15C280.983 368.15 280.416 367.905 279.946 367.415C279.475 366.919 279.24 366.316 279.24 365.608C279.24 364.892 279.475 364.29 279.946 363.8C280.416 363.31 280.983 363.065 281.647 363.065C282.381 363.065 282.945 363.336 283.338 363.877V363.191ZM280.719 366.719C281.009 367.009 281.373 367.154 281.811 367.154C282.249 367.154 282.613 367.009 282.903 366.719C283.193 366.423 283.338 366.052 283.338 365.608C283.338 365.163 283.193 364.796 282.903 364.506C282.613 364.209 282.249 364.061 281.811 364.061C281.373 364.061 281.009 364.209 280.719 364.506C280.429 364.796 280.284 365.163 280.284 365.608C280.284 366.052 280.429 366.423 280.719 366.719ZM285.599 368.024V360.968H286.643V368.024H285.599ZM291.683 363.191H292.727V368.024H291.683V367.328C291.29 367.876 290.726 368.15 289.991 368.15C289.328 368.15 288.761 367.905 288.29 367.415C287.82 366.919 287.585 366.316 287.585 365.608C287.585 364.892 287.82 364.29 288.29 363.8C288.761 363.31 289.328 363.065 289.991 363.065C290.726 363.065 291.29 363.336 291.683 363.877V363.191ZM289.063 366.719C289.353 367.009 289.718 367.154 290.156 367.154C290.594 367.154 290.958 367.009 291.248 366.719C291.538 366.423 291.683 366.052 291.683 365.608C291.683 365.163 291.538 364.796 291.248 364.506C290.958 364.209 290.594 364.061 290.156 364.061C289.718 364.061 289.353 364.209 289.063 364.506C288.773 364.796 288.628 365.163 288.628 365.608C288.628 366.052 288.773 366.423 289.063 366.719ZM296.486 363.065C297.04 363.065 297.488 363.243 297.829 363.597C298.171 363.951 298.342 364.438 298.342 365.057V368.024H297.298V365.163C297.298 364.802 297.201 364.525 297.008 364.332C296.815 364.138 296.55 364.042 296.215 364.042C295.848 364.042 295.552 364.158 295.326 364.39C295.1 364.615 294.988 364.963 294.988 365.434V368.024H293.944V363.191H294.988V363.81C295.303 363.313 295.803 363.065 296.486 363.065ZM301.747 368.15C301.019 368.15 300.41 367.905 299.92 367.415C299.437 366.925 299.195 366.323 299.195 365.608C299.195 364.886 299.437 364.283 299.92 363.8C300.41 363.31 301.019 363.065 301.747 363.065C302.217 363.065 302.646 363.178 303.033 363.404C303.419 363.629 303.709 363.932 303.903 364.312L303.004 364.834C302.894 364.602 302.727 364.422 302.501 364.293C302.282 364.158 302.027 364.09 301.737 364.09C301.312 364.09 300.954 364.235 300.664 364.525C300.381 364.815 300.239 365.176 300.239 365.608C300.239 366.039 300.381 366.4 300.664 366.69C300.954 366.98 301.312 367.125 301.737 367.125C302.021 367.125 302.275 367.057 302.501 366.922C302.733 366.787 302.907 366.606 303.023 366.381L303.922 366.893C303.716 367.28 303.419 367.586 303.033 367.811C302.646 368.037 302.217 368.15 301.747 368.15ZM305.423 366.052C305.5 366.419 305.677 366.703 305.954 366.903C306.231 367.096 306.57 367.193 306.969 367.193C307.523 367.193 307.939 366.993 308.216 366.593L309.076 367.096C308.6 367.799 307.894 368.15 306.96 368.15C306.173 368.15 305.539 367.911 305.055 367.434C304.572 366.951 304.33 366.342 304.33 365.608C304.33 364.886 304.569 364.283 305.046 363.8C305.522 363.31 306.135 363.065 306.882 363.065C307.591 363.065 308.171 363.313 308.622 363.81C309.08 364.306 309.308 364.908 309.308 365.617C309.308 365.727 309.295 365.872 309.27 366.052H305.423ZM305.413 365.202H308.255C308.184 364.808 308.02 364.512 307.762 364.312C307.51 364.112 307.214 364.013 306.873 364.013C306.486 364.013 306.164 364.119 305.906 364.332C305.648 364.544 305.484 364.834 305.413 365.202Z" fill="black"/>
<path d="M255.835 384.119C255.835 384.768 255.629 385.294 255.216 385.699C254.804 386.097 254.266 386.336 253.604 386.417V387.389H252.863V386.428C252.245 386.384 251.715 386.211 251.273 385.909C250.831 385.607 250.514 385.198 250.323 384.683L251.637 383.921C251.873 384.51 252.282 384.845 252.863 384.926V383.015C252.856 383.015 252.852 383.015 252.852 383.015L252.83 383.004C252.572 382.908 252.363 382.823 252.201 382.75C252.039 382.676 251.847 382.569 251.626 382.429C251.413 382.289 251.243 382.146 251.118 381.998C251 381.844 250.893 381.649 250.798 381.413C250.709 381.177 250.665 380.92 250.665 380.64C250.665 379.992 250.875 379.472 251.295 379.082C251.722 378.692 252.245 378.467 252.863 378.408V377.447H253.604V378.43C254.605 378.548 255.312 379.067 255.725 379.988L254.443 380.739C254.266 380.297 253.987 380.028 253.604 379.933V381.778C254.288 382.05 254.749 382.267 254.984 382.429C255.551 382.834 255.835 383.398 255.835 384.119ZM252.178 380.651C252.178 380.813 252.23 380.956 252.333 381.082C252.436 381.199 252.613 381.321 252.863 381.446V379.9C252.642 379.944 252.473 380.032 252.355 380.165C252.237 380.297 252.178 380.459 252.178 380.651ZM253.604 384.904C254.075 384.801 254.311 384.543 254.311 384.131C254.311 383.946 254.252 383.792 254.134 383.667C254.023 383.541 253.847 383.424 253.604 383.313V384.904ZM262.362 383.556V384.97H261.533V386.285H259.998V384.97H256.341V383.556L258.915 378.552H260.55L257.987 383.556H259.998V381.722H261.533V383.556H262.362ZM265.047 384.76L264.219 387.831H263.059L263.501 384.76H265.047ZM265.89 386.285V385.147L268.531 382.429C269.12 381.811 269.414 381.295 269.414 380.883C269.414 380.581 269.319 380.338 269.127 380.154C268.943 379.969 268.704 379.877 268.409 379.877C267.827 379.877 267.396 380.179 267.116 380.783L265.835 380.032C266.078 379.502 266.428 379.097 266.885 378.817C267.341 378.537 267.842 378.397 268.387 378.397C269.087 378.397 269.687 378.618 270.188 379.06C270.688 379.494 270.939 380.084 270.939 380.827C270.939 381.63 270.515 382.455 269.668 383.302L268.155 384.815H271.06V386.285H265.89ZM274.833 386.439C273.868 386.439 273.109 386.075 272.557 385.346C272.012 384.609 271.739 383.633 271.739 382.418C271.739 381.203 272.012 380.231 272.557 379.502C273.109 378.765 273.868 378.397 274.833 378.397C275.805 378.397 276.563 378.765 277.108 379.502C277.653 380.231 277.926 381.203 277.926 382.418C277.926 383.633 277.653 384.609 277.108 385.346C276.563 386.075 275.805 386.439 274.833 386.439ZM273.662 384.307C273.927 384.734 274.317 384.948 274.833 384.948C275.348 384.948 275.738 384.731 276.004 384.296C276.276 383.862 276.412 383.236 276.412 382.418C276.412 381.593 276.276 380.964 276.004 380.529C275.738 380.095 275.348 379.877 274.833 379.877C274.317 379.877 273.927 380.095 273.662 380.529C273.397 380.964 273.264 381.593 273.264 382.418C273.264 383.243 273.397 383.873 273.662 384.307ZM281.791 386.439C280.826 386.439 280.068 386.075 279.515 385.346C278.97 384.609 278.698 383.633 278.698 382.418C278.698 381.203 278.97 380.231 279.515 379.502C280.068 378.765 280.826 378.397 281.791 378.397C282.763 378.397 283.522 378.765 284.067 379.502C284.612 380.231 284.884 381.203 284.884 382.418C284.884 383.633 284.612 384.609 284.067 385.346C283.522 386.075 282.763 386.439 281.791 386.439ZM280.62 384.307C280.885 384.734 281.275 384.948 281.791 384.948C282.306 384.948 282.697 384.731 282.962 384.296C283.234 383.862 283.371 383.236 283.371 382.418C283.371 381.593 283.234 380.964 282.962 380.529C282.697 380.095 282.306 379.877 281.791 379.877C281.275 379.877 280.885 380.095 280.62 380.529C280.355 380.964 280.222 381.593 280.222 382.418C280.222 383.243 280.355 383.873 280.62 384.307Z" fill="black"/>
<path d="M294.535 381.376V382.291H293.018V383.808H292.102V382.291H290.585V381.376H292.102V379.859H293.018V381.376H294.535ZM296.795 378.692H297.692V384.975H296.66V379.796L295.395 380.155L295.143 379.275L296.795 378.692ZM303.419 382.884V383.844H302.701V384.975H301.66V383.844H298.573V382.884L300.736 378.692H301.858L299.695 382.884H301.66V381.25H302.701V382.884H303.419ZM306.088 381.035C305.812 381.31 305.465 381.447 305.046 381.447C304.628 381.447 304.278 381.31 303.996 381.035C303.715 380.753 303.574 380.412 303.574 380.011C303.574 379.61 303.715 379.272 303.996 378.997C304.278 378.716 304.628 378.575 305.046 378.575C305.465 378.575 305.812 378.713 306.088 378.988C306.369 379.263 306.51 379.604 306.51 380.011C306.51 380.412 306.369 380.753 306.088 381.035ZM305.037 380.658C305.229 380.658 305.385 380.595 305.504 380.469C305.624 380.343 305.684 380.191 305.684 380.011C305.684 379.826 305.624 379.67 305.504 379.545C305.385 379.419 305.229 379.356 305.037 379.356C304.852 379.356 304.699 379.419 304.58 379.545C304.46 379.67 304.4 379.826 304.4 380.011C304.4 380.191 304.46 380.343 304.58 380.469C304.699 380.595 304.852 380.658 305.037 380.658ZM304.104 384.05L308.242 379.446L308.726 379.724L304.589 384.338L304.104 384.05ZM307.919 385.083C307.5 385.083 307.15 384.945 306.869 384.67C306.587 384.388 306.447 384.047 306.447 383.646C306.447 383.246 306.587 382.907 306.869 382.632C307.15 382.351 307.5 382.21 307.919 382.21C308.332 382.21 308.679 382.351 308.96 382.632C309.241 382.907 309.382 383.246 309.382 383.646C309.382 384.047 309.241 384.388 308.96 384.67C308.679 384.945 308.332 385.083 307.919 385.083ZM307.91 384.293C308.101 384.293 308.257 384.23 308.376 384.104C308.496 383.979 308.556 383.826 308.556 383.646C308.556 383.461 308.496 383.305 308.376 383.18C308.257 383.054 308.101 382.991 307.91 382.991C307.724 382.991 307.572 383.054 307.452 383.18C307.332 383.305 307.272 383.461 307.272 383.646C307.272 383.826 307.332 383.979 307.452 384.104C307.572 384.23 307.724 384.293 307.91 384.293Z" fill="#00E1F0"/>
<path d="M250.377 397.441H250.93V401.307H250.294V398.12L249.516 398.341L249.361 397.8L250.377 397.441ZM254.2 400.832C253.935 401.197 253.563 401.379 253.084 401.379C252.605 401.379 252.232 401.197 251.963 400.832C251.698 400.468 251.565 399.982 251.565 399.374C251.565 398.767 251.698 398.281 251.963 397.916C252.232 397.551 252.605 397.369 253.084 397.369C253.563 397.369 253.935 397.551 254.2 397.916C254.469 398.281 254.603 398.767 254.603 399.374C254.603 399.982 254.469 400.468 254.2 400.832ZM253.084 400.761C253.371 400.761 253.59 400.641 253.741 400.402C253.892 400.162 253.968 399.82 253.968 399.374C253.968 398.929 253.892 398.586 253.741 398.347C253.59 398.107 253.371 397.988 253.084 397.988C252.801 397.988 252.581 398.107 252.427 398.347C252.276 398.586 252.2 398.929 252.2 399.374C252.2 399.82 252.276 400.162 252.427 400.402C252.581 400.641 252.801 400.761 253.084 400.761ZM257.613 401.307H256.9L255.768 400.031V401.307H255.171V397.441H255.768V399.766L256.839 398.546H257.569L256.353 399.899L257.613 401.307Z" fill="#718EBF"/>
<path d="M255.491 413.139V413.73H255.049V414.426H254.408V413.73H252.508V413.139L253.839 410.559H254.53L253.199 413.139H254.408V412.133H255.049V413.139H255.491ZM258.375 414.426H257.662L256.53 413.15V414.426H255.933V410.559H256.53V412.885L257.601 411.664H258.33L257.115 413.017L258.375 414.426Z" fill="#718EBF"/>
<path d="M251.833 427.544V427.047L253.181 425.672C253.508 425.344 253.672 425.06 253.672 424.821C253.672 424.633 253.615 424.488 253.501 424.385C253.391 424.278 253.249 424.224 253.076 424.224C252.752 424.224 252.512 424.385 252.358 424.705L251.822 424.39C251.943 424.132 252.115 423.937 252.336 423.805C252.557 423.672 252.801 423.606 253.07 423.606C253.409 423.606 253.7 423.713 253.943 423.926C254.186 424.14 254.307 424.431 254.307 424.799C254.307 425.193 254.088 425.613 253.65 426.058L252.777 426.931H254.379V427.544H251.833ZM257.375 427.544H256.662L255.53 426.268V427.544H254.933V423.678H255.53V426.003L256.601 424.782H257.33L256.115 426.136L257.375 427.544Z" fill="#718EBF"/>
<path d="M256.876 440.878C256.611 441.242 256.239 441.425 255.76 441.425C255.281 441.425 254.908 441.242 254.639 440.878C254.374 440.513 254.241 440.027 254.241 439.42C254.241 438.812 254.374 438.326 254.639 437.961C254.908 437.597 255.281 437.415 255.76 437.415C256.239 437.415 256.611 437.597 256.876 437.961C257.145 438.326 257.279 438.812 257.279 439.42C257.279 440.027 257.145 440.513 256.876 440.878ZM255.76 440.806C256.047 440.806 256.266 440.686 256.417 440.447C256.568 440.208 256.644 439.865 256.644 439.42C256.644 438.974 256.568 438.632 256.417 438.392C256.266 438.153 256.047 438.033 255.76 438.033C255.476 438.033 255.257 438.153 255.103 438.392C254.952 438.632 254.876 438.974 254.876 439.42C254.876 439.865 254.952 440.208 255.103 440.447C255.257 440.686 255.476 440.806 255.76 440.806Z" fill="#718EBF"/>
<path d="M270.758 449.71C270.386 449.71 270.069 449.625 269.808 449.456C269.55 449.286 269.369 449.054 269.266 448.76L269.813 448.439C269.968 448.874 270.288 449.091 270.774 449.091C271.014 449.091 271.192 449.045 271.31 448.953C271.432 448.857 271.492 448.734 271.492 448.583C271.492 448.425 271.428 448.305 271.299 448.224C271.17 448.139 270.942 448.047 270.614 447.948C270.43 447.893 270.281 447.841 270.167 447.793C270.052 447.745 269.931 447.679 269.802 447.594C269.677 447.506 269.583 447.397 269.52 447.268C269.458 447.139 269.426 446.989 269.426 446.815C269.426 446.473 269.548 446.202 269.791 446.003C270.034 445.801 270.327 445.7 270.669 445.7C270.979 445.7 271.249 445.775 271.481 445.926C271.713 446.077 271.892 446.285 272.017 446.55L271.481 446.86C271.319 446.499 271.049 446.318 270.669 446.318C270.485 446.318 270.338 446.363 270.227 446.451C270.117 446.536 270.062 446.652 270.062 446.799C270.062 446.942 270.117 447.057 270.227 447.141C270.342 447.222 270.546 447.309 270.84 447.401C270.988 447.449 271.095 447.486 271.161 447.511C271.231 447.533 271.327 447.57 271.448 447.622C271.573 447.673 271.667 447.725 271.73 447.777C271.792 447.828 271.859 447.893 271.929 447.97C272.002 448.047 272.054 448.136 272.083 448.235C272.113 448.334 272.127 448.447 272.127 448.572C272.127 448.922 272 449.2 271.746 449.406C271.496 449.608 271.166 449.71 270.758 449.71Z" fill="#718EBF"/>
<path d="M263.165 436.353C263.165 435.209 264.093 434.281 265.236 434.281H274.903C276.047 434.281 276.974 435.209 276.974 436.353V442.567H263.165V436.353Z" fill="#E8F2FF"/>
<path d="M288.92 445.771V449.638H288.285V446.882L287.109 448.826H287.031L285.855 446.876V449.638H285.22V445.771H285.905L287.07 447.705L288.241 445.771H288.92Z" fill="#718EBF"/>
<path d="M279.736 432.21C279.736 431.066 280.663 430.139 281.807 430.139H291.473C292.617 430.139 293.545 431.066 293.545 432.21V442.567H279.736V432.21Z" fill="#E8F2FF"/>
<path d="M304.739 445.772V446.379H303.651V449.638H303.015V446.379H301.922V445.772H304.739Z" fill="#718EBF"/>
<path d="M296.307 415.64C296.307 414.496 297.234 413.569 298.378 413.569H308.044C309.188 413.569 310.115 414.496 310.115 415.64V442.567H296.307V415.64Z" fill="#E8F2FF"/>
<path d="M318.465 449.638L317.371 445.772H318.04L318.852 448.793L319.73 445.772H320.315L321.188 448.793L322 445.772H322.668L321.575 449.638H320.84L320.023 446.816L319.2 449.638H318.465Z" fill="#718EBF"/>
<path d="M312.877 423.235C312.877 422.091 313.805 421.163 314.949 421.163H324.615C325.759 421.163 326.686 422.091 326.686 423.235V442.567H312.877V423.235Z" fill="#3734A9"/>
<path d="M337.879 445.772V446.379H336.791V449.638H336.156V446.379H335.062V445.772H337.879Z" fill="#718EBF"/>
<path d="M329.447 403.902C329.447 402.758 330.375 401.831 331.519 401.831H341.185C342.329 401.831 343.256 402.758 343.256 403.902V442.567H329.447V403.902Z" fill="#3734A9"/>
<path d="M354.954 446.38H353.324V447.462H354.899V448.07H353.324V449.639H352.689V445.772H354.954V446.38Z" fill="#718EBF"/>
<path d="M346.018 436.353C346.018 435.209 346.945 434.282 348.089 434.282H357.755C358.899 434.282 359.827 435.209 359.827 436.353V442.567H346.018V436.353Z" fill="#E8F2FF"/>
<path d="M370.181 449.71C369.809 449.71 369.492 449.625 369.231 449.456C368.973 449.286 368.793 449.054 368.69 448.76L369.236 448.439C369.391 448.874 369.711 449.091 370.198 449.091C370.437 449.091 370.615 449.045 370.733 448.953C370.855 448.857 370.916 448.734 370.916 448.583C370.916 448.425 370.851 448.305 370.722 448.224C370.593 448.139 370.365 448.047 370.037 447.948C369.853 447.893 369.704 447.841 369.59 447.793C369.476 447.745 369.354 447.679 369.225 447.594C369.1 447.506 369.006 447.397 368.944 447.268C368.881 447.14 368.85 446.989 368.85 446.816C368.85 446.473 368.971 446.202 369.214 446.004C369.457 445.801 369.75 445.7 370.093 445.7C370.402 445.7 370.673 445.775 370.905 445.926C371.137 446.077 371.315 446.285 371.44 446.55L370.905 446.86C370.743 446.499 370.472 446.318 370.093 446.318C369.908 446.318 369.761 446.363 369.651 446.451C369.54 446.536 369.485 446.652 369.485 446.799C369.485 446.943 369.54 447.057 369.651 447.141C369.765 447.222 369.969 447.309 370.264 447.401C370.411 447.449 370.518 447.486 370.584 447.512C370.654 447.534 370.75 447.57 370.871 447.622C370.997 447.674 371.09 447.725 371.153 447.777C371.216 447.828 371.282 447.893 371.352 447.97C371.426 448.047 371.477 448.136 371.507 448.235C371.536 448.335 371.551 448.447 371.551 448.572C371.551 448.922 371.424 449.2 371.17 449.406C370.919 449.609 370.59 449.71 370.181 449.71Z" fill="#718EBF"/>
<path d="M362.588 423.234C362.588 422.09 363.516 421.163 364.66 421.163H374.326C375.47 421.163 376.397 422.09 376.397 423.234V442.567H362.588V423.234Z" fill="#3734A9"/>
<path d="M387.442 449.71C387.07 449.71 386.753 449.625 386.491 449.456C386.234 449.287 386.053 449.055 385.95 448.76L386.497 448.44C386.652 448.874 386.972 449.091 387.458 449.091C387.697 449.091 387.876 449.045 387.994 448.953C388.115 448.858 388.176 448.734 388.176 448.583C388.176 448.425 388.112 448.305 387.983 448.224C387.854 448.139 387.626 448.047 387.298 447.948C387.114 447.893 386.965 447.841 386.85 447.793C386.736 447.745 386.615 447.679 386.486 447.594C386.361 447.506 386.267 447.397 386.204 447.269C386.142 447.14 386.11 446.989 386.11 446.816C386.11 446.473 386.232 446.203 386.475 446.004C386.718 445.801 387.011 445.7 387.353 445.7C387.662 445.7 387.933 445.775 388.165 445.926C388.397 446.077 388.576 446.285 388.701 446.551L388.165 446.86C388.003 446.499 387.732 446.319 387.353 446.319C387.169 446.319 387.022 446.363 386.911 446.451C386.801 446.536 386.746 446.652 386.746 446.799C386.746 446.943 386.801 447.057 386.911 447.142C387.025 447.223 387.23 447.309 387.524 447.401C387.672 447.449 387.778 447.486 387.845 447.512C387.915 447.534 388.01 447.571 388.132 447.622C388.257 447.674 388.351 447.725 388.414 447.777C388.476 447.828 388.543 447.893 388.612 447.97C388.686 448.047 388.738 448.136 388.767 448.235C388.797 448.335 388.811 448.447 388.811 448.572C388.811 448.922 388.684 449.2 388.43 449.406C388.18 449.609 387.85 449.71 387.442 449.71Z" fill="#718EBF"/>
<path d="M379.159 412.878C379.159 411.734 380.086 410.807 381.23 410.807H390.896C392.04 410.807 392.967 411.734 392.967 412.878V442.567H379.159V412.878Z" fill="#3734A9"/>
<defs>
<filter id="filter0_d_1_118" x="184.462" y="0.539953" width="367.78" height="339.344" filterUnits="userSpaceOnUse" color-interpolation-filters="sRGB">
<feFlood flood-opacity="0" result="BackgroundImageFix"/>
<feColorMatrix in="SourceAlpha" type="matrix" values="0 0 0 0 0 0 0 0 0 0 0 0 0 0 0 0 0 0 127 0" result="hardAlpha"/>
<feOffset dy="3.79155"/>
<feGaussianBlur stdDeviation="58.769"/>
<feComposite in2="hardAlpha" operator="out"/>
<feColorMatrix type="matrix" values="0 0 0 0 0 0 0 0 0 0 0 0 0 0 0 0 0 0 0.1 0"/>
<feBlend mode="normal" in2="BackgroundImageFix" result="effect1_dropShadow_1_118"/>
<feBlend mode="normal" in="SourceGraphic" in2="effect1_dropShadow_1_118" result="shape"/>
</filter>
<filter id="filter1_dddddd_1_118" x="183.765" y="346.391" width="278.246" height="241.167" filterUnits="userSpaceOnUse" color-interpolation-filters="sRGB">
<feFlood flood-opacity="0" result="BackgroundImageFix"/>
<feColorMatrix in="SourceAlpha" type="matrix" values="0 0 0 0 0 0 0 0 0 0 0 0 0 0 0 0 0 0 127 0" result="hardAlpha"/>
<feOffset dy="1.27859"/>
<feGaussianBlur stdDeviation="1.0868"/>
<feColorMatrix type="matrix" values="0 0 0 0 0 0 0 0 0 0 0 0 0 0 0 0 0 0 0.01 0"/>
<feBlend mode="normal" in2="BackgroundImageFix" result="effect1_dropShadow_1_118"/>
<feColorMatrix in="SourceAlpha" type="matrix" values="0 0 0 0 0 0 0 0 0 0 0 0 0 0 0 0 0 0 127 0" result="hardAlpha"/>
<feOffset dy="5.62578"/>
<feGaussianBlur stdDeviation="2.25031"/>
<feColorMatrix type="matrix" values="0 0 0 0 0 0 0 0 0 0 0 0 0 0 0 0 0 0 0.0117778 0"/>
<feBlend mode="normal" in2="effect1_dropShadow_1_118" result="effect2_dropShadow_1_118"/>
<feColorMatrix in="SourceAlpha" type="matrix" values="0 0 0 0 0 0 0 0 0 0 0 0 0 0 0 0 0 0 127 0" result="hardAlpha"/>
<feOffset dy="13.8087"/>
<feGaussianBlur stdDeviation="4.48783"/>
<feColorMatrix type="matrix" values="0 0 0 0 0 0 0 0 0 0 0 0 0 0 0 0 0 0 0.015 0"/>
<feBlend mode="normal" in2="effect2_dropShadow_1_118" result="effect3_dropShadow_1_118"/>
<feColorMatrix in="SourceAlpha" type="matrix" values="0 0 0 0 0 0 0 0 0 0 0 0 0 0 0 0 0 0 127 0" result="hardAlpha"/>
<feOffset dy="26.5946"/>
<feGaussianBlur stdDeviation="8.79667"/>
<feColorMatrix type="matrix" values="0 0 0 0 0 0 0 0 0 0 0 0 0 0 0 0 0 0 0.0182222 0"/>
<feBlend mode="normal" in2="effect3_dropShadow_1_118" result="effect4_dropShadow_1_118"/>
<feColorMatrix in="SourceAlpha" type="matrix" values="0 0 0 0 0 0 0 0 0 0 0 0 0 0 0 0 0 0 127 0" result="hardAlpha"/>
<feOffset dy="44.7505"/>
<feGaussianBlur stdDeviation="16.1741"/>
<feColorMatrix type="matrix" values="0 0 0 0 0 0 0 0 0 0 0 0 0 0 0 0 0 0 0.0227778 0"/>
<feBlend mode="normal" in2="effect4_dropShadow_1_118" result="effect5_dropShadow_1_118"/>
<feColorMatrix in="SourceAlpha" type="matrix" values="0 0 0 0 0 0 0 0 0 0 0 0 0 0 0 0 0 0 127 0" result="hardAlpha"/>
<feOffset dy="69.0436"/>
<feGaussianBlur stdDeviation="27.6174"/>
<feColorMatrix type="matrix" values="0 0 0 0 0 0 0 0 0 0 0 0 0 0 0 0 0 0 0.03 0"/>
<feBlend mode="normal" in2="effect5_dropShadow_1_118" result="effect6_dropShadow_1_118"/>
<feBlend mode="normal" in="SourceGraphic" in2="effect6_dropShadow_1_118" result="shape"/>
</filter>
<linearGradient id="paint0_linear_1_118" x1="172.041" y1="142.424" x2="172.041" y2="363.282" gradientUnits="userSpaceOnUse">
<stop stop-color="#4F46BA" stop-opacity="0.21"/>
<stop offset="1" stop-color="white" stop-opacity="0"/>
</linearGradient>
</defs>
</svg>
