<svg width="12" height="13" viewBox="0 0 12 13" fill="none" xmlns="http://www.w3.org/2000/svg">
<path d="M5.99533 2.91333C5.17812 2.91333 4.39438 3.23797 3.81652 3.81582C3.23867 4.39368 2.91403 5.17742 2.91403 5.99463C2.91403 6.81184 3.23867 7.59558 3.81652 8.17343C4.39438 8.75129 5.17812 9.07592 5.99533 9.07592C6.81254 9.07592 7.59628 8.75129 8.17414 8.17343C8.75199 7.59558 9.07663 6.81184 9.07663 5.99463C9.07663 5.17742 8.75199 4.39368 8.17414 3.81582C7.59628 3.23797 6.81254 2.91333 5.99533 2.91333ZM5.99533 7.99574C5.46442 7.99574 4.95527 7.78484 4.57986 7.40943C4.20445 7.03402 3.99355 6.52487 3.99355 5.99396C3.99355 5.46306 4.20445 4.9539 4.57986 4.57849C4.95527 4.20309 5.46442 3.99218 5.99533 3.99218C6.52623 3.99218 7.03539 4.20309 7.4108 4.57849C7.78621 4.9539 7.99711 5.46306 7.99711 5.99396C7.99711 6.52487 7.78621 7.03402 7.4108 7.40943C7.03539 7.78484 6.52623 7.99574 5.99533 7.99574Z" fill="#1B1C31"/>
<path d="M9.19867 3.51855C9.59539 3.51855 9.91699 3.19698 9.91699 2.80029C9.91699 2.40361 9.59539 2.08203 9.19867 2.08203C8.80195 2.08203 8.48035 2.40361 8.48035 2.80029C8.48035 3.19698 8.80195 3.51855 9.19867 3.51855Z" fill="#1B1C31"/>
<path d="M11.6821 2.06973C11.5279 1.67136 11.2921 1.3096 10.99 1.00758C10.6879 0.70557 10.326 0.469968 9.92759 0.315857C9.46135 0.140841 8.9688 0.0462065 8.4709 0.0359836C7.82919 0.00799631 7.62594 0 5.99867 0C4.37139 0 4.16282 -6.70249e-08 3.52643 0.0359836C3.02891 0.0456838 2.53671 0.140337 2.07108 0.315857C1.67255 0.469788 1.31059 0.705327 1.00844 1.00736C0.706289 1.3094 0.47061 1.67126 0.316526 2.06973C0.141474 2.53593 0.0470554 3.02852 0.0373167 3.5264C0.00866281 4.16745 0 4.37069 0 5.99862C0 7.62588 -4.96485e-09 7.83312 0.0373167 8.47083C0.0473123 8.96927 0.14127 9.46105 0.316526 9.92817C0.471042 10.3265 0.70695 10.6882 1.00918 10.9902C1.3114 11.2922 1.6733 11.5278 2.07175 11.682C2.5365 11.8641 3.0289 11.9655 3.52777 11.9819C4.16948 12.0099 4.37272 12.0186 6 12.0186C7.62728 12.0186 7.83585 12.0186 8.47223 11.9819C8.97008 11.9718 9.46261 11.8774 9.92892 11.7027C10.3272 11.5482 10.689 11.3124 10.9911 11.0103C11.2932 10.7082 11.529 10.3465 11.6835 9.94816C11.8587 9.4817 11.9527 8.98993 11.9627 8.49149C11.9913 7.85044 12 7.6472 12 6.01927C12 4.39134 12 4.18477 11.9627 3.54706C11.9549 3.04214 11.86 2.54235 11.6821 2.06973V2.06973ZM10.8705 8.42152C10.8662 8.80555 10.7961 9.186 10.6633 9.54634C10.5632 9.80547 10.41 10.0408 10.2135 10.2371C10.017 10.4335 9.78162 10.5866 9.52243 10.6865C9.16608 10.8187 8.78967 10.8888 8.4096 10.8937C7.77654 10.9231 7.59796 10.9304 5.97468 10.9304C4.35007 10.9304 4.18414 10.9304 3.53909 10.8937C3.15921 10.8891 2.78298 10.819 2.42692 10.6865C2.16683 10.5872 1.93048 10.4344 1.73316 10.238C1.53584 10.0416 1.38194 9.80597 1.28143 9.54634C1.15045 9.18987 1.08039 8.8139 1.07419 8.43418C1.04554 7.80113 1.03887 7.62255 1.03887 5.99928C1.03887 4.37535 1.03887 4.20943 1.07419 3.56372C1.0785 3.17991 1.14859 2.79968 1.28143 2.43956C1.48467 1.9138 1.90116 1.49999 2.42692 1.29874C2.78316 1.1669 3.15928 1.09681 3.53909 1.09151C4.17281 1.06285 4.35073 1.05486 5.97468 1.05486C7.59862 1.05486 7.76522 1.05486 8.4096 1.09151C8.7897 1.09608 9.16617 1.16619 9.52243 1.29874C9.7816 1.39888 10.017 1.5521 10.2134 1.74856C10.4099 1.94502 10.5631 2.18039 10.6633 2.43956C10.7942 2.79603 10.8643 3.172 10.8705 3.55172C10.8992 4.18544 10.9065 4.36336 10.9065 5.98729C10.9065 7.61055 10.9065 7.78514 10.8778 8.42218H10.8705V8.42152Z" fill="#1B1C31"/>
</svg>
