<svg width="25" height="25" viewBox="0 0 25 25" fill="none" xmlns="http://www.w3.org/2000/svg">
<path d="M4.46756 0.0926333C4.62666 0.169133 4.76092 0.289011 4.85489 0.438465C4.94885 0.587919 4.99869 0.760872 4.99867 0.937409C4.99867 1.97463 5.38857 2.57197 5.87719 3.29928L5.91343 3.35177C6.32832 3.9691 6.87317 4.77764 6.87317 5.93608C6.87317 7.11826 6.27708 8.16049 5.36857 8.77907C5.60726 8.97902 5.81845 9.2252 6.0009 9.52013C6.59575 10.4824 6.87317 11.9532 6.87317 14.0652C6.87317 16.2046 6.58575 18.7739 6.11712 20.8259C5.88469 21.8456 5.59601 22.7866 5.25235 23.4927C5.09011 23.844 4.87519 24.1684 4.61502 24.4549C4.35759 24.7186 3.96145 24.9998 3.43659 24.9998C2.91173 24.9998 2.51558 24.7186 2.2594 24.4549C1.99848 24.169 1.78348 23.8444 1.62207 23.4927C1.27716 22.7853 0.988488 21.8456 0.75605 20.8246C0.268613 18.6036 0.0152133 16.3377 1.20406e-06 14.0639C1.20406e-06 11.952 0.277427 10.4824 0.872269 9.52013C1.04197 9.24082 1.25547 8.99061 1.5046 8.77907C1.04069 8.46411 0.660996 8.04031 0.39871 7.54471C0.136424 7.04911 -0.000468382 6.4968 1.20406e-06 5.93608C1.20406e-06 5.4762 1.0726e-06 4.68516 0.478624 3.66418C0.947249 2.66445 1.83826 1.516 3.47533 0.205104C3.6133 0.094738 3.77966 0.0256197 3.95522 0.00572002C4.13078 -0.0141797 4.30839 0.0159495 4.46756 0.0926333ZM1.8745 5.93483C1.8745 6.34912 2.03908 6.74769 2.33203 7.04064C2.62497 7.33359 3.0223 7.49816 3.43659 7.49816C3.85088 7.49816 4.2482 7.33359 4.54115 7.04064C4.8341 6.74769 4.99867 6.35037 4.99867 5.93608C4.99867 5.38748 4.76748 5.00758 4.32135 4.344L4.30636 4.32151C4.02018 3.89662 3.68152 3.39301 3.44159 2.74693C2.76302 3.43674 2.38812 4.00909 2.17692 4.45897C1.8745 5.1038 1.8745 5.56368 1.8745 5.93483ZM2.46684 10.5049C2.15693 11.0072 1.8745 12.037 1.8745 14.0652C1.8745 16.0659 2.14693 18.4952 2.58306 20.4085C2.80301 21.3707 3.05294 22.1518 3.30662 22.6716C3.35286 22.7679 3.3966 22.8478 3.43659 22.9153C3.47658 22.8478 3.52031 22.7679 3.56655 22.6716C3.82023 22.1518 4.07017 21.3695 4.29011 20.4085C4.72749 18.4965 4.99867 16.0671 4.99867 14.0652C4.99867 12.037 4.71625 11.0072 4.40633 10.5049C4.31286 10.3357 4.17159 10.1979 4.00019 10.1087C3.82272 10.0314 3.62998 9.99553 3.43659 10.0037C3.18665 10.0037 3.00795 10.0425 2.87299 10.1087C2.70159 10.1979 2.56031 10.3357 2.46684 10.5049ZM9.99734 16.1434C9.33528 16.0323 8.69127 15.8322 8.08285 15.5485C8.11942 14.8398 8.12984 14.1299 8.11409 13.4203C8.67769 13.799 9.31377 14.0777 9.99734 14.2326V10.6223C9.99734 10.1252 10.1948 9.6484 10.5464 9.29686C10.8979 8.94532 11.3747 8.74783 11.8718 8.74783H16.8705C16.8705 7.69898 16.5771 6.67104 16.0235 5.78017C15.4699 4.88929 14.6783 4.17098 13.7379 3.70639C12.7976 3.24181 11.746 3.04947 10.7021 3.1511C9.65819 3.25273 8.6635 3.64428 7.83042 4.28152C7.58048 3.59045 7.22433 3.06184 6.9769 2.69444L6.92691 2.61946C8.04968 1.82798 9.36831 1.36015 10.7389 1.26706C12.1094 1.17396 13.4792 1.45916 14.6987 2.09154C15.9182 2.72392 16.9405 3.67916 17.6541 4.85299C18.3676 6.02682 18.745 7.37413 18.745 8.74783H23.1189C23.616 8.74783 24.0928 8.94532 24.4443 9.29686C24.7959 9.6484 24.9934 10.1252 24.9934 10.6223V21.8693C24.9934 22.3665 24.7959 22.8433 24.4443 23.1948C24.0928 23.5464 23.616 23.7438 23.1189 23.7438H11.8718C11.3747 23.7438 10.8979 23.5464 10.5464 23.1948C10.1948 22.8433 9.99734 22.3665 9.99734 21.8693V16.1421V16.1434ZM11.8718 16.2221V21.8706H23.1189V10.6236H18.5076C18.1182 12.1295 17.2705 13.4771 16.0817 14.4801C14.8929 15.4831 13.4218 16.0918 11.8718 16.2221ZM16.5506 10.6236H11.8718V14.3388C12.9218 14.2211 13.9174 13.8103 14.7448 13.1532C15.5723 12.4962 16.198 11.6196 16.5506 10.6236Z" fill="#540D77"/>
</svg>
