<svg width="28" height="25" viewBox="0 0 28 25" fill="none" xmlns="http://www.w3.org/2000/svg">
<path d="M11.8279 4.99501L12.5031 4.25733V8.74595C12.5031 9.07755 12.6348 9.39557 12.8693 9.63005C13.1038 9.86453 13.4218 9.99626 13.7534 9.99626C14.085 9.99626 14.4031 9.86453 14.6375 9.63005C14.872 9.39557 15.0037 9.07755 15.0037 8.74595V4.25733L15.6789 4.945C15.7924 5.07318 15.931 5.1767 16.0861 5.24912C16.2413 5.32154 16.4096 5.36132 16.5808 5.36601C16.7519 5.3707 16.9222 5.34019 17.0811 5.27637C17.24 5.21256 17.384 5.11679 17.5044 4.99501C17.6216 4.87878 17.7146 4.74049 17.778 4.58813C17.8415 4.43577 17.8742 4.27235 17.8742 4.10729C17.8742 3.94223 17.8415 3.77881 17.778 3.62645C17.7146 3.47409 17.6216 3.3358 17.5044 3.21957L14.6412 0.356356C14.5222 0.242527 14.382 0.153298 14.2285 0.0937903C13.9241 -0.0312634 13.5827 -0.0312634 13.2783 0.0937903C13.1248 0.153298 12.9846 0.242527 12.8657 0.356356L10.0025 3.16956C9.76042 3.41163 9.62443 3.73995 9.62443 4.08228C9.62443 4.42462 9.76042 4.75294 10.0025 4.99501C10.2446 5.23708 10.5729 5.37308 10.9152 5.37308C11.2576 5.37308 11.5859 5.23708 11.8279 4.99501ZM13.7534 12.4969C13.0116 12.4969 12.2864 12.7169 11.6695 13.129C11.0527 13.5412 10.5719 14.127 10.288 14.8124C10.0041 15.4978 9.92984 16.252 10.0746 16.9796C10.2193 17.7072 10.5765 18.3756 11.1011 18.9001C11.6257 19.4247 12.294 19.7819 13.0217 19.9267C13.7493 20.0714 14.5035 19.9971 15.1888 19.7132C15.8742 19.4293 16.4601 18.9486 16.8722 18.3317C17.2844 17.7149 17.5044 16.9897 17.5044 16.2478C17.5044 15.253 17.1092 14.2989 16.4057 13.5955C15.7023 12.8921 14.7482 12.4969 13.7534 12.4969ZM13.7534 17.4981C13.5061 17.4981 13.2644 17.4248 13.0588 17.2874C12.8532 17.15 12.6929 16.9548 12.5983 16.7263C12.5037 16.4978 12.4789 16.2464 12.5271 16.0039C12.5754 15.7614 12.6945 15.5386 12.8693 15.3637C13.0442 15.1889 13.267 15.0698 13.5095 15.0215C13.752 14.9733 14.0034 14.998 14.2319 15.0927C14.4604 15.1873 14.6556 15.3476 14.793 15.5532C14.9304 15.7588 15.0037 16.0005 15.0037 16.2478C15.0037 16.5794 14.872 16.8974 14.6375 17.1319C14.4031 17.3664 14.085 17.4981 13.7534 17.4981ZM5.00125 16.2478C5.00125 16.4951 5.07458 16.7368 5.21196 16.9425C5.34935 17.1481 5.54462 17.3083 5.77309 17.403C6.00155 17.4976 6.25295 17.5223 6.49548 17.4741C6.73802 17.4259 6.9608 17.3068 7.13566 17.1319C7.31052 16.9571 7.4296 16.7343 7.47785 16.4917C7.52609 16.2492 7.50133 15.9978 7.4067 15.7693C7.31206 15.5409 7.15181 15.3456 6.94619 15.2082C6.74058 15.0708 6.49885 14.9975 6.25156 14.9975C5.91996 14.9975 5.60193 15.1292 5.36746 15.3637C5.13298 15.5982 5.00125 15.9162 5.00125 16.2478ZM22.5056 16.2478C22.5056 16.0005 22.4323 15.7588 22.2949 15.5532C22.1575 15.3476 21.9622 15.1873 21.7338 15.0927C21.5053 14.998 21.2539 14.9733 21.0114 15.0215C20.7688 15.0698 20.5461 15.1889 20.3712 15.3637C20.1963 15.5386 20.0773 15.7614 20.029 16.0039C19.9808 16.2464 20.0055 16.4978 20.1002 16.7263C20.1948 16.9548 20.3551 17.15 20.5607 17.2874C20.7663 17.4248 21.008 17.4981 21.2553 17.4981C21.5869 17.4981 21.9049 17.3664 22.1394 17.1319C22.3739 16.8974 22.5056 16.5794 22.5056 16.2478ZM23.7559 7.49564H18.7547C18.4231 7.49564 18.1051 7.62737 17.8706 7.86184C17.6361 8.09632 17.5044 8.41434 17.5044 8.74595C17.5044 9.07755 17.6361 9.39557 17.8706 9.63005C18.1051 9.86453 18.4231 9.99626 18.7547 9.99626H23.7559C24.0875 9.99626 24.4055 10.128 24.64 10.3625C24.8745 10.5969 25.0062 10.915 25.0062 11.2466V21.2491C25.0062 21.5807 24.8745 21.8987 24.64 22.1332C24.4055 22.3676 24.0875 22.4994 23.7559 22.4994H3.75094C3.41933 22.4994 3.10131 22.3676 2.86683 22.1332C2.63235 21.8987 2.50062 21.5807 2.50062 21.2491V11.2466C2.50062 10.915 2.63235 10.5969 2.86683 10.3625C3.10131 10.128 3.41933 9.99626 3.75094 9.99626H8.75218C9.08379 9.99626 9.40181 9.86453 9.63629 9.63005C9.87076 9.39557 10.0025 9.07755 10.0025 8.74595C10.0025 8.41434 9.87076 8.09632 9.63629 7.86184C9.40181 7.62737 9.08379 7.49564 8.75218 7.49564H3.75094C2.75613 7.49564 1.80206 7.89082 1.09862 8.59426C0.395187 9.2977 0 10.2518 0 11.2466V21.2491C0 22.2439 0.395187 23.1979 1.09862 23.9014C1.80206 24.6048 2.75613 25 3.75094 25H23.7559C24.7507 25 25.7048 24.6048 26.4082 23.9014C27.1117 23.1979 27.5069 22.2439 27.5069 21.2491V11.2466C27.5069 10.2518 27.1117 9.2977 26.4082 8.59426C25.7048 7.89082 24.7507 7.49564 23.7559 7.49564Z" fill="#063660"/>
</svg>
