<svg width="27" height="25" viewBox="0 0 27 25" fill="none" xmlns="http://www.w3.org/2000/svg">
<path d="M25.9639 20.4L24.6264 19.375C24.6514 19.1625 24.6764 18.9625 24.6764 18.75C24.6764 18.5375 24.6639 18.3375 24.6264 18.125L25.9514 17.1C26.0076 17.0518 26.0456 16.9859 26.0592 16.9132C26.0729 16.8405 26.0613 16.7653 26.0264 16.7L24.7764 14.5375C24.7014 14.375 24.5389 14.375 24.3764 14.375L22.8389 15C22.5014 14.775 22.1639 14.5625 21.7764 14.4125L21.5389 12.7625C21.531 12.6913 21.4975 12.6254 21.4446 12.5771C21.3917 12.5288 21.323 12.5014 21.2514 12.5H18.7514C18.675 12.4986 18.6006 12.5241 18.5411 12.5721C18.4817 12.6201 18.4411 12.6875 18.4264 12.7625L18.1889 14.4125C17.8139 14.575 17.4514 14.775 17.1264 15L15.5764 14.375C15.4389 14.375 15.2764 14.375 15.1889 14.5375L13.9389 16.7C13.8639 16.8375 13.8889 17 14.0139 17.1L15.3389 18.125C15.289 18.5402 15.289 18.9598 15.3389 19.375L14.0139 20.4C13.9577 20.4482 13.9197 20.5141 13.906 20.5868C13.8924 20.6595 13.904 20.7347 13.9389 20.8L15.1889 22.9625C15.2639 23.125 15.4264 23.125 15.5764 23.125L17.1264 22.5C17.4514 22.725 17.8014 22.9375 18.1889 23.0875L18.4264 24.7375C18.4514 24.8875 18.5764 25 18.7514 25H21.2514C21.3889 25 21.5264 24.8875 21.5514 24.7375L21.7889 23.0875C22.1639 22.925 22.5014 22.725 22.8389 22.5L24.3764 23.125C24.5389 23.125 24.7014 23.125 24.7889 22.9625L26.0389 20.8C26.0738 20.7347 26.0854 20.6595 26.0717 20.5868C26.0581 20.5141 26.0201 20.4482 25.9639 20.4ZM20.0014 20.625C18.9514 20.625 18.1264 19.7875 18.1264 18.75C18.1264 17.7125 18.9639 16.875 20.0014 16.875C21.0389 16.875 21.8764 17.7125 21.8764 18.75C21.8764 19.7875 21.0389 20.625 20.0014 20.625ZM1.25138 0C0.976385 0 0.713885 0.1 0.476385 0.275C0.216928 0.479433 0.0489371 0.778252 0.00911942 1.10616C-0.0306982 1.43407 0.0608951 1.76441 0.263885 2.025L7.46388 11.25H7.50139V18.5875C7.45139 18.95 7.57639 19.3375 7.86389 19.625L10.3764 22.1375C10.8139 22.575 11.4889 22.6 11.9764 22.25C11.5014 21.1375 11.2514 19.95 11.2514 18.75C11.2514 17.1625 11.6889 15.625 12.5014 14.25V11.25H12.5389L19.7389 2.025C19.9419 1.76441 20.0335 1.43407 19.9937 1.10616C19.9538 0.778252 19.7858 0.479433 19.5264 0.275C19.2889 0.1 19.0264 0 18.7514 0H1.25138Z" fill="#483005"/>
</svg>
